<!DOCTYPE svg PUBLIC "-//W3C//DTD SVG 20010904//EN" "http://www.w3.org/TR/2001/REC-SVG-20010904/DTD/svg10.dtd">
<svg version="1.0" xmlns="http://www.w3.org/2000/svg" width="24px" height="23px" viewBox="0 0 240 230" preserveAspectRatio="xMidYMid meet">
<g id="layer101" fill="#c6cbd1" stroke="none">
 <path d="M58 214 c-73 -39 -75 -151 -4 -198 32 -20 105 -21 134 0 28 19 52 65 52 99 0 34 -24 80 -52 99 -28 20 -94 20 -130 0z m87 -14 c4 -6 -7 -10 -25 -10 -18 0 -29 4 -25 10 3 6 15 10 25 10 10 0 22 -4 25 -10z m3 -46 c30 -21 29 -59 -3 -80 -23 -15 -27 -15 -50 0 -32 21 -33 59 -3 80 12 9 25 16 28 16 3 0 16 -7 28 -16z m-98 -39 c0 -19 -4 -35 -9 -35 -12 0 -19 29 -13 53 7 30 22 18 22 -18z m164 19 c8 -20 -2 -54 -15 -54 -5 0 -9 16 -9 35 0 37 13 47 24 19z m-69 -104 c-3 -6 -15 -10 -25 -10 -10 0 -22 5 -25 10 -4 6 7 10 25 10 18 0 29 -4 25 -10z"/>
 </g>

</svg>