<!DOCTYPE svg PUBLIC "-//W3C//DTD SVG 20010904//EN" "http://www.w3.org/TR/2001/REC-SVG-20010904/DTD/svg10.dtd">
<svg version="1.0" xmlns="http://www.w3.org/2000/svg" width="109px" height="44px" viewBox="0 0 1090 440" preserveAspectRatio="xMidYMid meet">
<g id="layer101" fill="#ffffff" stroke="none">
 <path d="M80 433 c-28 -10 -80 -67 -80 -88 0 -29 24 -60 59 -75 30 -12 30 -13 16 -41 -8 -15 -15 -38 -15 -51 0 -13 -7 -32 -15 -42 -19 -25 -19 -56 1 -84 20 -29 59 -31 50 -2 -3 11 -9 29 -12 40 -5 16 1 14 27 -11 42 -39 87 -59 135 -59 44 0 93 27 100 57 17 68 -109 148 -194 124 -25 -8 -32 -7 -29 2 2 6 18 16 35 21 51 14 42 54 -18 75 -52 17 -80 39 -80 61 0 26 39 42 77 31 85 -24 137 -73 216 -202 114 -185 147 -218 166 -166 11 28 -14 74 -84 160 -28 34 -63 80 -78 102 -26 38 -35 75 -19 75 14 0 79 -74 111 -127 51 -83 99 -103 140 -59 21 22 22 28 11 60 -16 49 -75 99 -107 91 -20 -5 -24 -2 -21 12 5 24 49 21 87 -6 16 -11 47 -52 70 -90 48 -82 57 -89 79 -67 16 16 15 20 -6 59 l-23 42 59 -58 c39 -39 66 -58 78 -55 31 6 28 35 -9 86 -19 26 -42 62 -51 80 -17 33 -17 33 4 22 11 -6 48 -45 82 -86 90 -110 121 -121 179 -63 25 25 24 32 -11 81 -16 22 -30 50 -30 62 0 18 8 13 46 -27 51 -54 64 -58 64 -21 0 40 -59 94 -103 94 -20 0 -37 -6 -40 -12 -4 -10 -7 -10 -18 0 -18 17 -74 15 -89 -3 -11 -13 -15 -13 -33 0 -28 19 -81 19 -97 0 -7 -8 -10 -29 -8 -45 l5 -31 -46 44 -46 45 -78 1 c-62 1 -81 -3 -95 -17 -18 -18 -19 -18 -42 0 -27 22 -88 24 -96 3 -5 -12 -12 -10 -37 9 -68 51 -134 68 -187 49z m861 -157 c37 -50 39 -79 4 -46 -27 25 -85 111 -85 125 0 13 49 -35 81 -79z m-415 -23 c11 -16 24 -35 29 -43 8 -13 7 -13 -9 -1 -24 20 -59 71 -49 71 5 0 18 -12 29 -27z m-300 -112 c80 -36 93 -96 17 -73 -51 15 -120 72 -101 83 20 13 39 11 84 -10z"/>
 </g>

</svg>