<!DOCTYPE svg PUBLIC "-//W3C//DTD SVG 20010904//EN" "http://www.w3.org/TR/2001/REC-SVG-20010904/DTD/svg10.dtd">
<svg version="1.0" xmlns="http://www.w3.org/2000/svg" width="39px" height="42px" viewBox="0 0 390 420" preserveAspectRatio="xMidYMid meet">
<g id="layer101" fill="#50c3af" stroke="none">
 <path d="M90 407 c-23 -11 -25 -19 -28 -82 -4 -96 1 -111 44 -125 24 -8 38 -9 43 -2 3 5 5 58 3 116 -4 115 -7 121 -62 93z m30 -103 c0 -86 -15 -92 -25 -9 -5 38 -4 60 5 70 7 8 14 15 16 15 2 0 4 -34 4 -76z"/>
 <path d="M237 414 c-9 -9 -8 -126 1 -179 7 -35 10 -40 32 -37 48 7 60 29 60 107 0 41 -5 78 -12 88 -14 18 -69 33 -81 21z m53 -110 c0 -36 -4 -64 -10 -64 -6 0 -10 30 -10 71 0 44 4 68 10 64 6 -3 10 -35 10 -71z"/>
 <path d="M7 324 c-11 -12 -8 -148 5 -185 42 -126 183 -173 293 -98 59 41 79 90 78 192 -1 49 -4 91 -7 94 -3 3 -12 3 -21 0 -12 -5 -15 -24 -15 -89 0 -65 -4 -90 -20 -116 -58 -95 -194 -97 -252 -3 -15 24 -23 57 -27 119 -5 78 -16 104 -34 86z"/>
 </g>

</svg>