<!DOCTYPE svg PUBLIC "-//W3C//DTD SVG 20010904//EN" "http://www.w3.org/TR/2001/REC-SVG-20010904/DTD/svg10.dtd">
<svg version="1.0" xmlns="http://www.w3.org/2000/svg" width="38px" height="35px" viewBox="0 0 380 350" preserveAspectRatio="xMidYMid meet">
<g id="layer101" fill="#50c3af" stroke="none">
 <path d="M152 323 c-18 -15 -60 -58 -93 -95 -53 -63 -59 -73 -59 -115 0 -38 5 -50 34 -79 38 -38 81 -45 129 -20 23 13 31 13 55 0 47 -25 90 -18 128 20 29 29 34 41 34 79 0 37 -7 54 -38 94 -43 53 -137 143 -149 143 -4 -1 -23 -13 -41 -27z m103 -85 c36 -40 44 -54 31 -56 -17 -4 -23 -42 -6 -42 18 0 11 -28 -11 -44 -13 -9 -19 -21 -16 -30 9 -22 33 -20 57 4 24 24 27 70 5 70 -9 0 -12 6 -8 16 6 15 8 15 20 -2 22 -30 16 -70 -13 -93 -37 -29 -60 -26 -94 11 l-29 31 -29 -31 c-36 -38 -64 -40 -97 -7 -42 41 -33 68 47 151 39 41 77 74 84 74 7 0 33 -24 59 -52z"/>
 </g>

</svg>