<!DOCTYPE svg PUBLIC "-//W3C//DTD SVG 20010904//EN" "http://www.w3.org/TR/2001/REC-SVG-20010904/DTD/svg10.dtd">
<svg version="1.0" xmlns="http://www.w3.org/2000/svg" width="24px" height="19px" viewBox="0 0 240 190" preserveAspectRatio="xMidYMid meet">
<g id="layer101" fill="#c6cbd1" stroke="none">
 <path d="M80 160 c0 -33 2 -35 31 -19 20 10 20 11 3 30 -24 27 -34 24 -34 -11z"/>
 <path d="M148 154 c-32 -17 -34 -26 -12 -44 8 -8 20 -22 25 -32 7 -13 -3 -9 -34 13 l-43 30 -43 -17 c-23 -9 -39 -20 -34 -24 13 -12 223 -83 228 -78 3 3 -3 40 -13 84 -19 85 -28 94 -74 68z"/>
 </g>

</svg>