<!DOCTYPE svg PUBLIC "-//W3C//DTD SVG 20010904//EN" "http://www.w3.org/TR/2001/REC-SVG-20010904/DTD/svg10.dtd">
<svg version="1.0" xmlns="http://www.w3.org/2000/svg" width="43px" height="31px" viewBox="0 0 430 310" preserveAspectRatio="xMidYMid meet">
<g id="layer101" fill="#50c3af" stroke="none">
 <path d="M0 290 c0 -27 42 -66 86 -80 l35 -12 -26 -25 c-32 -33 -35 -98 -5 -136 42 -53 130 -43 161 20 11 23 19 29 30 22 17 -10 47 -2 71 19 19 16 23 58 8 82 -7 11 -2 17 21 27 28 11 52 49 42 66 -2 4 -24 7 -49 7 -32 0 -44 4 -44 15 0 13 -25 15 -165 15 -160 0 -165 -1 -165 -20z m145 -30 c-8 -13 -45 -13 -65 0 -11 7 -3 10 28 10 26 0 41 -4 37 -10z m95 -4 c-17 -10 -30 -11 -42 -5 -28 15 -22 19 25 19 41 -1 41 -1 17 -14z m115 -6 l24 0 -22 -23 c-14 -14 -31 -21 -47 -19 -33 4 -70 -22 -54 -38 9 -9 17 -9 32 -1 16 9 24 7 36 -5 9 -8 16 -19 16 -23 0 -16 -25 -31 -52 -31 -21 0 -28 5 -28 19 0 10 -11 29 -24 43 l-25 24 50 23 c28 12 53 30 56 39 4 10 8 12 11 4 2 -7 14 -12 27 -12z m-165 -46 c0 -2 -12 -4 -27 -4 -21 0 -24 3 -14 9 13 8 41 5 41 -5z m14 -63 c25 -27 17 -72 -15 -90 -24 -13 -29 -13 -53 2 -17 12 -26 26 -26 44 0 55 59 83 94 44z"/>
 </g>

</svg>